# xmcd
#
# Track frame offsets:
#	150
#	17144
#	35948
#	50811
#	69811
#	88829
#	106823
#	128901
#	144739
#	160999
#
# Disc length: 2460 seconds
#
# Revision: 0
# Processed by: cddbd v1.4PL0 Copyright (c) Steve Scherf et al.
# Submitted via: audiograbber 1.81.02
#
DISCID=8e099a0a
DTITLE=Jelena Karleusa - NOVO
DYEAR=1900
DGENRE=
TTITLE0=Manijak
TTITLE1=Samo za tvoje oci
TTITLE2=Pazi se
TTITLE3=Moj dragi
TTITLE4=Ne, ne, ne
TTITLE5=Radoznala
TTITLE6=Jos te volim
TTITLE7=Zar ne
TTITLE8=Love
TTITLE9=Manijak (remix version by Valentino)
EXTD=
EXTT0=
EXTT1=
EXTT2=
EXTT3=
EXTT4=
EXTT5=
EXTT6=
EXTT7=
EXTT8=
EXTT9=
PLAYORDER=
